<svg xmlns="http://www.w3.org/2000/svg" viewBox="0 0 322 86.52"><defs><style>.cls-1{fill:#1d252c;}.cls-2{fill:#a0a2a6;}.cls-3{fill:#faef50;}</style></defs><g id="Layer_2" data-name="Layer 2"><g id="LAYOUTS"><path class="cls-1" d="M206.41.66H180.8L195,8.37h-6.43v33h10.55V28.73h7.3c8.83,0,14.8-5,14.8-14S215.24.66,206.41.66Zm-1.13,19.18h-6.17V9.62h6.17c3.85,0,5.58,2,5.58,5.11S209.13,19.84,205.28,19.84Z"></path><path class="cls-2" d="M81.83,70.51a2.36,2.36,0,0,0-1.92-1,2.26,2.26,0,0,0-.94.2,2.18,2.18,0,0,0-.74.53,2.43,2.43,0,0,0-.48.79,2.9,2.9,0,0,0,0,2,2.33,2.33,0,0,0,.49.8,2.21,2.21,0,0,0,.74.54,2.15,2.15,0,0,0,.91.19,2.53,2.53,0,0,0,1.94-1v2.82l-.23.08a6,6,0,0,1-1,.29,4.46,4.46,0,0,1-.88.09A4.24,4.24,0,0,1,78,76.51a4.37,4.37,0,0,1-1.44-1A5,5,0,0,1,75.22,72a4.9,4.9,0,0,1,.37-1.94,4.73,4.73,0,0,1,1-1.52,4.43,4.43,0,0,1,1.45-1,4.33,4.33,0,0,1,2.74-.24,5.94,5.94,0,0,1,1,.36Z"></path><path class="cls-2" d="M89.31,71h3.24V67.45H94.8v9.17H92.55V72.83H89.31v3.79H87.06V67.45h2.25Z"></path><path class="cls-2" d="M105.35,75h-3.21l-.52,1.6h-2.4l3.29-9.17H105l3.29,9.17h-2.4Zm-.6-1.81-1-3-1,3Z"></path><path class="cls-2" d="M119.87,76.62h-2.8l-2.14-3.53v3.53h-2.25V67.45h3.5a3.26,3.26,0,0,1,1.26.22,2.41,2.41,0,0,1,.89.62,2.71,2.71,0,0,1,.53.9,3.51,3.51,0,0,1,.17,1.09,2.87,2.87,0,0,1-.47,1.7,2.39,2.39,0,0,1-1.41.88Zm-4.94-5.07h.42a1.51,1.51,0,0,0,1-.3,1.15,1.15,0,0,0,0-1.67,1.51,1.51,0,0,0-1-.29h-.42Z"></path><path class="cls-2" d="M128.34,71.49h4.46c0,.48,0,.92-.05,1.32a5.32,5.32,0,0,1-.23,1.11,4.37,4.37,0,0,1-.66,1.27,3.85,3.85,0,0,1-1,.92,4.27,4.27,0,0,1-1.22.57,4.93,4.93,0,0,1-1.4.19,4.79,4.79,0,0,1-1.84-.35,4.22,4.22,0,0,1-1.42-1,4.55,4.55,0,0,1-.93-1.53,5.71,5.71,0,0,1-.33-2,5.6,5.6,0,0,1,.32-2,4.36,4.36,0,0,1,.93-1.53,4.18,4.18,0,0,1,1.45-1,4.82,4.82,0,0,1,1.89-.36,4.54,4.54,0,0,1,2.38.62,4.27,4.27,0,0,1,1.61,1.93l-2.13.93a2.35,2.35,0,0,0-.77-1.08,1.87,1.87,0,0,0-1.09-.33,2.09,2.09,0,0,0-.91.2,2.18,2.18,0,0,0-.71.57,2.93,2.93,0,0,0-.46.9,4.3,4.3,0,0,0,0,2.25,2.4,2.4,0,0,0,.43.86,1.94,1.94,0,0,0,.71.56,2.19,2.19,0,0,0,1,.2,2.73,2.73,0,0,0,.64-.07,1.74,1.74,0,0,0,.55-.26A1.4,1.4,0,0,0,130,74a1.82,1.82,0,0,0,.22-.68h-1.85Z"></path><path class="cls-2" d="M142.58,69.47h-2.67V71h2.52v2h-2.52V74.6h2.67v2h-4.92V67.45h4.92Z"></path><path class="cls-2" d="M174.44,69.8a2.73,2.73,0,0,0-.73-.47,1.89,1.89,0,0,0-.71-.15,1.13,1.13,0,0,0-.71.21A.7.7,0,0,0,172,70a.61.61,0,0,0,.14.4,1.3,1.3,0,0,0,.36.27,3,3,0,0,0,.51.2l.55.18a3.44,3.44,0,0,1,1.61,1,2.69,2.69,0,0,1,.51,1.7,3.51,3.51,0,0,1-.22,1.28,2.72,2.72,0,0,1-.65,1,2.89,2.89,0,0,1-1.06.64,4.17,4.17,0,0,1-1.41.22,5,5,0,0,1-3-1l1-1.92a4,4,0,0,0,1,.7,2.19,2.19,0,0,0,1,.23,1.15,1.15,0,0,0,.82-.26.85.85,0,0,0,.27-.61.8.8,0,0,0-.07-.36.67.67,0,0,0-.23-.28,1.61,1.61,0,0,0-.42-.24l-.62-.24-.85-.32a2.88,2.88,0,0,1-.75-.47,2.26,2.26,0,0,1-.53-.74,2.77,2.77,0,0,1-.2-1.12,3.51,3.51,0,0,1,.21-1.24,2.86,2.86,0,0,1,.6-.94,2.66,2.66,0,0,1,.94-.62,3.51,3.51,0,0,1,1.24-.22,5.49,5.49,0,0,1,1.35.19,5.77,5.77,0,0,1,1.34.56Z"></path><path class="cls-2" d="M180.15,76.62l1.47-9.17h2.22l1.74,4.89,1.71-4.89h2.23L191,76.62h-2.24L188,71.34l-2,5.28h-.89l-1.94-5.28-.74,5.28Z"></path><path class="cls-2" d="M201.14,75h-3.21l-.51,1.6H195l3.29-9.17h2.45l3.29,9.17h-2.39Zm-.59-1.81-1-3-1,3Z"></path><path class="cls-2" d="M215.67,76.62h-2.8l-2.14-3.53v3.53h-2.25V67.45H212a3.26,3.26,0,0,1,1.26.22,2.5,2.5,0,0,1,.89.62,2.53,2.53,0,0,1,.52.9,3.24,3.24,0,0,1,.18,1.09,2.87,2.87,0,0,1-.47,1.7,2.39,2.39,0,0,1-1.41.88Zm-4.94-5.07h.42a1.51,1.51,0,0,0,1-.3,1.15,1.15,0,0,0,0-1.67,1.51,1.51,0,0,0-1-.29h-.42Z"></path><path class="cls-2" d="M223.34,69.47v7.15h-2.25V69.47h-1.84v-2h5.93v2Z"></path><path class="cls-2" d="M234.54,69.47h-2.67V71h2.52v2h-2.52V74.6h2.67v2h-4.92V67.45h4.92Z"></path><path class="cls-2" d="M246.78,76.62H244l-2.15-3.53v3.53h-2.25V67.45h3.5a3.26,3.26,0,0,1,1.26.22,2.41,2.41,0,0,1,.89.62,2.71,2.71,0,0,1,.53.9,3.24,3.24,0,0,1,.18,1.09,2.81,2.81,0,0,1-.48,1.7,2.37,2.37,0,0,1-1.4.88Zm-4.94-5.07h.43a1.55,1.55,0,0,0,1-.3,1.17,1.17,0,0,0,0-1.67,1.55,1.55,0,0,0-1-.29h-.43Z"></path><polygon class="cls-3" points="163.41 70.61 158.92 71.31 164.63 56.57 151.1 72.49 155.78 71.62 150.07 86.52 163.41 70.61"></polygon><path class="cls-1" d="M175.59,17.18l-8-1.85c-2.12-.47-3.38-1.46-3.38-3.25,0-2.26,2.05-3.59,5.11-3.59,3.51,0,5.37,1.73,6.23,4H186C184.88,5.44,179.24,0,169.29,0c-9,0-15.66,5.24-15.66,13.2,0,6.9,4.51,10,10.48,11.35l7.83,1.66c2.59.59,3.85,1.46,3.85,3.38,0,2.52-2.25,3.92-5.51,3.92s-5.7-1.4-6.56-4.18H152.64c1.46,8,8.09,12.73,17.84,12.73,8.89,0,15.93-4.77,15.93-13.13C186.41,22.62,182.56,18.84,175.59,17.18Z"></path><path class="cls-1" d="M301.43.66H286V41.4h15.39c12.81,0,20.57-8,20.57-20.37S314.24.66,301.43.66Zm-.53,31.52h-4.38V9.82h4.38c6.77,0,10.55,4.31,10.55,11.21S307.67,32.18,300.9,32.18Z"></path><polygon class="cls-1" points="43.75 0.66 57.94 8.37 51.4 8.37 45.65 25.73 37.35 0.66 26.98 0.66 18.68 25.73 10.37 0.66 0 0.66 13.49 41.4 13.49 41.4 23.86 41.4 23.86 41.4 32.16 16.32 40.47 41.4 40.47 41.4 50.84 41.4 50.84 41.4 62.19 7.11 73.55 41.4 83.92 41.4 70.43 0.66 43.75 0.66"></polygon><polygon class="cls-1" points="133.99 32.18 133.99 25.14 149.97 25.14 149.97 16.19 133.99 16.19 133.99 9.82 151.28 9.82 152.64 0.66 115.85 0.66 115.85 0.66 115.85 0.66 115.85 0.66 115.84 0.66 115.84 0.66 107.74 0.66 94.6 17.38 94.6 0.66 83.92 0.66 83.92 41.4 94.6 41.4 94.6 30.05 97.98 25.74 108.27 41.4 120.81 41.4 105.95 18.58 118.89 2.32 130.04 8.37 123.51 8.37 123.51 41.4 152.64 41.4 151.28 32.18 133.99 32.18"></polygon><polygon class="cls-1" points="251.35 9.82 252.7 0.66 215.92 0.66 230.11 8.37 223.58 8.37 223.58 41.4 252.7 41.4 251.35 32.18 234.06 32.18 234.06 25.14 248.34 25.14 250.04 16.19 234.06 16.19 234.06 9.82 251.35 9.82"></polygon><polygon class="cls-1" points="282.54 9.82 283.9 0.66 254.77 0.66 254.77 41.4 283.9 41.4 282.54 32.18 265.26 32.18 265.26 25.14 279.43 25.14 281.24 16.19 265.26 16.19 265.26 9.82 282.54 9.82"></polygon></g></g></svg>